<svg xmlns="http://www.w3.org/2000/svg" width="38" height="38.108" viewBox="0 0 38 38.108">
  <g id="Groupe_10" data-name="Groupe 10" transform="translate(-941 -680.892)">
    <g id="Groupe_9" data-name="Groupe 9" transform="translate(9.484 -45.623)">
      <g id="Rectangle_4856" data-name="Rectangle 4856" transform="translate(963.516 745.623)" fill="none" stroke="#fff" stroke-width="0.5">
        <rect width="6" height="19" rx="2" stroke="none"/>
        <rect x="0.25" y="0.25" width="5.5" height="18.5" rx="1.75" fill="none"/>
      </g>
      <g id="Rectangle_4861" data-name="Rectangle 4861" transform="translate(937.516 764.623) rotate(180)" fill="none" stroke="#fff" stroke-width="0.5">
        <rect width="6" height="19" rx="2" stroke="none"/>
        <rect x="0.25" y="0.25" width="5.5" height="18.5" rx="1.75" fill="none"/>
      </g>
      <g id="Intersection_1" data-name="Intersection 1" transform="translate(963.516 761.623) rotate(180)" fill="none">
        <path d="M0,13V0A2,2,0,0,1,2,2v9a2,2,0,0,1-2,2Z" stroke="none"/>
        <path d="M -1.525878978725359e-09 12.99960041046143 C 1.104300022125244 12.99960041046143 2.000699996948242 12.10410022735596 2.000699996948242 10.99890041351318 L 2.000699996948242 2.000700235366821 C 2.000699996948242 0.8955001831054688 1.104300022125244 2.052307195299363e-07 -1.525878978725359e-09 2.052307195299363e-07 L -1.525878978725359e-09 12.99960041046143 M -1.525878978725359e-09 13.49960041046143 L -0.5 13.49960041046143 L -0.5 12.99960041046143 L -0.5 2.052307195299363e-07 L -0.5 -0.4999997913837433 L -1.525878978725359e-09 -0.4999997913837433 C 1.378890037536621 -0.4999997913837433 2.500699996948242 0.6218101978302002 2.500699996948242 2.000700235366821 L 2.500699996948242 10.99890041351318 C 2.500699996948242 12.3777904510498 1.378890037536621 13.49960041046143 -1.525878978725359e-09 13.49960041046143 Z" stroke="none" fill="#fff"/>
      </g>
      <g id="Intersection_2" data-name="Intersection 2" transform="translate(937.516 748.623)" fill="none">
        <path d="M0,13V0A2,2,0,0,1,2,2v9a2,2,0,0,1-2,2Z" stroke="none"/>
        <path d="M -1.525878978725359e-09 12.99960041046143 C 1.104300022125244 12.99960041046143 2.000699996948242 12.10410022735596 2.000699996948242 10.99890041351318 L 2.000699996948242 2.000700235366821 C 2.000699996948242 0.8955001831054688 1.104300022125244 2.052307195299363e-07 -1.525878978725359e-09 2.052307195299363e-07 L -1.525878978725359e-09 12.99960041046143 M -1.525878978725359e-09 13.49960041046143 L -0.5 13.49960041046143 L -0.5 12.99960041046143 L -0.5 2.052307195299363e-07 L -0.5 -0.4999997913837433 L -1.525878978725359e-09 -0.4999997913837433 C 1.378890037536621 -0.4999997913837433 2.500699996948242 0.6218101978302002 2.500699996948242 2.000700235366821 L 2.500699996948242 10.99890041351318 C 2.500699996948242 12.3777904510498 1.378890037536621 13.49960041046143 -1.525878978725359e-09 13.49960041046143 Z" stroke="none" fill="#fff"/>
      </g>
      <path id="Tracé_7" data-name="Tracé 7" d="M936.217-1222.272c0-10.585,7.529-18.964,17.614-18.964" transform="translate(-3.033 1968)" fill="none" stroke="#fff" stroke-width="0.5"/>
      <path id="Tracé_9" data-name="Tracé 9" d="M936.217-1224.836c0-9.154,6.361-16.4,14.882-16.4" transform="translate(-0.301 1970.564)" fill="none" stroke="#fff" stroke-width="0.5"/>
      <path id="Tracé_8" data-name="Tracé 8" d="M953.336-1222.272c0-10.585-7.318-18.964-17.118-18.964" transform="translate(14.581 1968)" fill="none" stroke="#fff" stroke-width="0.5"/>
      <path id="Tracé_10" data-name="Tracé 10" d="M950.73-1224.836c0-9.154-6.2-16.4-14.513-16.4" transform="translate(14.581 1970.564)" fill="none" stroke="#fff" stroke-width="0.5"/>
    </g>
  </g>
</svg>
