<svg xmlns="http://www.w3.org/2000/svg" width="421.888" height="199.777" viewBox="0 0 421.888 199.777">
  <g id="Groupe_35" data-name="Groupe 35" transform="translate(-563.544 81.193)">
    <g id="Groupe_34" data-name="Groupe 34" transform="translate(563.544 55.782)">
      <path id="Tracé_14" data-name="Tracé 14" d="M465.275,86.6a31.867,31.867,0,0,0-4.406-2.089,40.536,40.536,0,0,0-4.776-1.3,20.432,20.432,0,0,1-6.727-2.455,5.017,5.017,0,0,1-1.9-4.408q0-6.126,7.6-6.121a12.246,12.246,0,0,1,6.682,1.763,7.563,7.563,0,0,0,3.615,1.483,2.623,2.623,0,0,0,2.969-2.969q0-3.245-4.638-4.917a25.382,25.382,0,0,0-8.536-1.667q-6.676,0-10.527,3.427a11.815,11.815,0,0,0-3.851,9.282,12.679,12.679,0,0,0,1.208,5.746,9.063,9.063,0,0,0,3.523,3.807,24.718,24.718,0,0,0,4.082,2.042,39.345,39.345,0,0,0,4.546,1.3c1.545.367,2.628.633,3.246.784s1.469.418,2.553.791a6.1,6.1,0,0,1,2.223,1.157,7.205,7.205,0,0,1,1.162,1.626,4.955,4.955,0,0,1,.556,2.411,5.99,5.99,0,0,1-2.274,4.962q-2.27,1.813-6.816,1.812a12.477,12.477,0,0,1-8.443-2.88c-.064-.06-.277-.245-.65-.552s-.618-.514-.742-.605-.341-.23-.65-.418a3.108,3.108,0,0,0-.88-.373,4.207,4.207,0,0,0-.88-.09,2.857,2.857,0,0,0-2.969,2.969,4.342,4.342,0,0,0,1.39,3.15q5.1,5.106,14.193,5.1,6.867,0,11.134-3.523a11.649,11.649,0,0,0,4.267-9.463A12.135,12.135,0,0,0,469.22,90.5,9.8,9.8,0,0,0,465.275,86.6Z" transform="translate(-439.581 -46.573)" fill="#fff"/>
      <path id="Tracé_15" data-name="Tracé 15" d="M476.116,63.921a16.289,16.289,0,0,0-13.59,6.539Q457.468,77,457.468,86.646q0,9.745,5.2,16.237t14.472,6.492a17.811,17.811,0,0,0,12.428-4.544,4.394,4.394,0,0,0,1.671-3.342,2.875,2.875,0,0,0-3.061-3.061,5.325,5.325,0,0,0-3.34,1.671,11.35,11.35,0,0,1-7.792,2.784q-5.844,0-8.952-3.8a16.814,16.814,0,0,1-3.666-9.09h27.09a3.364,3.364,0,0,0,2.413-.88,3.25,3.25,0,0,0,.927-2.462q0-9.649-5.056-16.186A16.387,16.387,0,0,0,476.116,63.921ZM464.333,83.5a17.223,17.223,0,0,1,3.711-9.463,10.049,10.049,0,0,1,8.072-3.619,10.19,10.19,0,0,1,8.119,3.619A17.047,17.047,0,0,1,487.99,83.5Z" transform="translate(-419.343 -46.573)" fill="#fff"/>
      <path id="Tracé_16" data-name="Tracé 16" d="M497.893,63.921a12.942,12.942,0,0,0-11.5,6.307V68.184a3.882,3.882,0,0,0-.976-2.732,3.159,3.159,0,0,0-4.732,0,3.9,3.9,0,0,0-.974,2.732v36.922a3.912,3.912,0,0,0,.974,2.739,3.155,3.155,0,0,0,4.732,0,3.894,3.894,0,0,0,.976-2.739V83.5a13.884,13.884,0,0,1,3.2-9.327,9.924,9.924,0,0,1,7.839-3.756q10.387,0,10.391,13.449v21.244a3.911,3.911,0,0,0,.972,2.739,3.155,3.155,0,0,0,4.732,0,3.9,3.9,0,0,0,.974-2.739V83.585q0-9.278-4.265-14.47T497.893,63.921Z" transform="translate(-394.181 -46.573)" fill="#fff"/>
      <path id="Tracé_17" data-name="Tracé 17" d="M534.642,55.782a3.086,3.086,0,0,0-2.366,1.066,3.892,3.892,0,0,0-.974,2.735V79.436q-4.086-6.311-12.339-6.307a15.83,15.83,0,0,0-13.36,6.539q-4.92,6.538-4.917,16.186t4.917,16.19a15.829,15.829,0,0,0,13.36,6.539q8.255,0,12.339-6.307v2.038a3.9,3.9,0,0,0,.974,2.739,3.155,3.155,0,0,0,4.732,0,3.911,3.911,0,0,0,.972-2.739V59.582a3.9,3.9,0,0,0-.972-2.735A3.1,3.1,0,0,0,534.642,55.782Zm-6.447,51.667a10.706,10.706,0,0,1-17.58.1q-3.251-4.543-3.248-11.691t3.248-11.687a10.71,10.71,0,0,1,17.58.09,19.566,19.566,0,0,1,3.291,11.6A19.532,19.532,0,0,1,528.195,107.449Z" transform="translate(-370.445 -55.782)" fill="#fff"/>
      <path id="Tracé_18" data-name="Tracé 18" d="M458.306,96.307a12.844,12.844,0,0,0-11.418,6.26v-2.029a3.859,3.859,0,0,0-.969-2.712,3.132,3.132,0,0,0-4.7,0,3.858,3.858,0,0,0-.967,2.712v36.65a3.874,3.874,0,0,0,.967,2.719,3.136,3.136,0,0,0,4.7,0,3.875,3.875,0,0,0,.969-2.719V115.736a13.778,13.778,0,0,1,3.174-9.256,9.857,9.857,0,0,1,7.782-3.728q10.311,0,10.314,13.35v21.087a3.874,3.874,0,0,0,.967,2.719,3.136,3.136,0,0,0,4.7,0,3.883,3.883,0,0,0,.967-2.719V115.827q0-9.21-4.236-14.364T458.306,96.307Z" transform="translate(-231.818 -79.085)" fill="#fff"/>
      <path id="Tracé_19" data-name="Tracé 19" d="M493.539,96.524a3.068,3.068,0,0,0-2.348,1.06,3.857,3.857,0,0,0-.967,2.712v21.457a13.766,13.766,0,0,1-3.178,9.252,9.842,9.842,0,0,1-7.782,3.732q-10.314,0-10.314-13.354V100.3a3.866,3.866,0,0,0-.965-2.712,3.132,3.132,0,0,0-4.7,0,3.858,3.858,0,0,0-.967,2.712v21.369q0,9.2,4.236,14.361t12.248,5.156a12.849,12.849,0,0,0,11.419-6.258v2.023a3.873,3.873,0,0,0,.967,2.719,3.136,3.136,0,0,0,4.7,0,3.883,3.883,0,0,0,.967-2.719V100.3a3.867,3.867,0,0,0-.967-2.712A3.068,3.068,0,0,0,493.539,96.524Z" transform="translate(-207.198 -78.843)" fill="#fff"/>
      <path id="Tracé_20" data-name="Tracé 20" d="M517.221,88.167a3.064,3.064,0,0,0-2.346,1.06,3.858,3.858,0,0,0-.967,2.712v19.71q-4.056-6.265-12.248-6.26a15.711,15.711,0,0,0-13.261,6.489q-4.884,6.49-4.881,16.067t4.881,16.073a15.711,15.711,0,0,0,13.261,6.489q8.194,0,12.248-6.258v2.023a3.874,3.874,0,0,0,.967,2.719,3.133,3.133,0,0,0,4.695,0,3.873,3.873,0,0,0,.967-2.719V91.939a3.857,3.857,0,0,0-.967-2.712A3.068,3.068,0,0,0,517.221,88.167Zm-6.4,51.289a10.63,10.63,0,0,1-17.45.1q-3.224-4.513-3.222-11.607t3.222-11.6a10.633,10.633,0,0,1,17.45.091,19.4,19.4,0,0,1,3.269,11.509A19.381,19.381,0,0,1,510.821,139.456Z" transform="translate(-183.549 -88.167)" fill="#fff"/>
      <path id="Tracé_21" data-name="Tracé 21" d="M524.4,96.307a16.167,16.167,0,0,0-13.49,6.489q-5.021,6.49-5.021,16.067,0,9.676,5.158,16.117t14.366,6.444a17.679,17.679,0,0,0,12.339-4.511,4.359,4.359,0,0,0,1.659-3.317,2.854,2.854,0,0,0-3.04-3.038,5.3,5.3,0,0,0-3.315,1.659,11.255,11.255,0,0,1-7.733,2.763q-5.8,0-8.888-3.777a16.672,16.672,0,0,1-3.637-9.023h26.891a3.337,3.337,0,0,0,2.393-.874,3.22,3.22,0,0,0,.92-2.444q0-9.575-5.018-16.067A16.264,16.264,0,0,0,524.4,96.307Zm-11.7,19.429a17.1,17.1,0,0,1,3.683-9.392,9.968,9.968,0,0,1,8.012-3.592,10.105,10.105,0,0,1,8.059,3.592,16.939,16.939,0,0,1,3.73,9.392Z" transform="translate(-158.59 -79.085)" fill="#fff"/>
      <path id="Tracé_22" data-name="Tracé 22" d="M552.113,118.818a32.13,32.13,0,0,0-4.373-2.073A40.4,40.4,0,0,0,543,115.456a20.28,20.28,0,0,1-6.677-2.437,4.984,4.984,0,0,1-1.885-4.377q0-6.077,7.549-6.074a12.16,12.16,0,0,1,6.631,1.748,7.53,7.53,0,0,0,3.59,1.475,2.6,2.6,0,0,0,2.947-2.947q0-3.224-4.6-4.883a25.241,25.241,0,0,0-8.473-1.652q-6.626,0-10.452,3.4a11.729,11.729,0,0,0-3.821,9.212,12.6,12.6,0,0,0,1.2,5.706,8.978,8.978,0,0,0,3.5,3.777,24.4,24.4,0,0,0,4.052,2.029,39.1,39.1,0,0,0,4.513,1.288c1.534.366,2.609.63,3.222.779s1.458.417,2.535.785a6.117,6.117,0,0,1,2.207,1.149,7.2,7.2,0,0,1,1.153,1.614,4.931,4.931,0,0,1,.552,2.393,5.946,5.946,0,0,1-2.258,4.925q-2.253,1.8-6.766,1.8a12.385,12.385,0,0,1-8.38-2.858c-.063-.059-.275-.245-.645-.55s-.613-.51-.736-.6-.338-.231-.645-.415a3.025,3.025,0,0,0-.874-.37,4.178,4.178,0,0,0-.874-.089,2.839,2.839,0,0,0-2.949,2.947,4.316,4.316,0,0,0,1.381,3.127q5.062,5.065,14.089,5.065,6.817,0,11.052-3.5a11.559,11.559,0,0,0,4.236-9.392,12.046,12.046,0,0,0-1.335-5.85A9.723,9.723,0,0,0,552.113,118.818Z" transform="translate(-135.476 -79.085)" fill="#fff"/>
    </g>
    <path id="Tracé_23" data-name="Tracé 23" d="M481.7,62.362c-23.72,0-27.15,8.33-44.817,8.33s-22.787-8.33-46.2-8.33a60.645,60.645,0,0,0-51.1,93.33l-9.562,27.994L354,171.33a60.623,60.623,0,0,0,82.191-8.219l.009.009c.147-.139,15.146-14.334,15.146-40.1,0-25.89-18.015-43.138-18.015-43.138s4.578,2.718,9.76,9.917c2.718-4.184,4.293-5.893,6.814-7.618,2.432-1.409,3.216-1.618,3.751-2.033,0,0-.614.5-1.567,1.36a45.944,45.944,0,0,0-7.76,10.823c5.222,7.554,10.335,18.147,10.335,30.688,0,25.5-15.781,41.652-15.943,41.778,11.117,12.605,24.852,18.884,42.98,18.884a60.662,60.662,0,1,0,0-121.324Z" transform="translate(338.3 -143.555)" fill="#fff"/>
  </g>
</svg>
