<svg xmlns="http://www.w3.org/2000/svg" viewBox="0 0 14 11.5">
    <g id="Groupe_6" data-name="Groupe 6" transform="translate(-845 -597.425)">
        <g id="Rectangle_4847" data-name="Rectangle 4847" transform="translate(845 599.925)" fill="none" stroke="#383838" stroke-width="0.5">
        <rect width="14" height="9" stroke="none"/>
        <rect x="0.25" y="0.25" width="13.5" height="8.5" fill="none"/>
        </g>
        <g id="Rectangle_4849" data-name="Rectangle 4849" transform="translate(847 599.925)" fill="none" stroke="#383838" stroke-width="0.5">
        <rect width="10" height="9" stroke="none"/>
        <rect x="0.25" y="0.25" width="9.5" height="8.5" fill="none"/>
        </g>
        <g id="Soustraction_1" data-name="Soustraction 1" transform="translate(849 597.925)" fill="none">
        <path d="M6,2H0A2,2,0,0,1,2,0H4A2,2,0,0,1,6,2Z" stroke="none"/>
        <path d="M 6.000299453735352 1.999800086021423 L 6.000299453735352 1.998800039291382 C 5.999749660491943 0.8966600298881531 5.102639675140381 4.301071143686386e-08 4.000499725341797 4.301071143686386e-08 L 1.999799489974976 4.301071143686386e-08 C 0.8975594639778137 4.301071143686386e-08 -5.115509225106507e-07 0.8966600298881531 -5.115509225106507e-07 1.999800086021423 L 5.9992995262146 1.999800086021423 L 6.000299453735352 1.999800086021423 M 6.000299453735352 2.499799966812134 L 5.9992995262146 2.499799966812134 L -5.115509225106507e-07 2.499799966812134 L -0.500000536441803 2.499799966812134 L -0.500000536441803 1.999800086021423 C -0.500000536441803 0.621410071849823 0.6214094758033752 -0.4999999701976776 1.999799489974976 -0.4999999701976776 L 4.000499725341797 -0.4999999701976776 C 5.378209590911865 -0.4999999701976776 6.499609470367432 0.6208500266075134 6.500299453735352 1.998550057411194 L 6.50054931640625 2.498800039291382 L 6.000299453735352 2.499799966812134 Z" stroke="none" fill="#383838"/>
        </g>
    </g>
</svg>